# xmcd
#
# Track frame offsets:
#	150
#	10145
#	23405
#	36551
#	48773
#	60347
#	72818
#	84156
#	94284
#	107268
#	119122
#	130820
#	142675
#	155043
#	166998
#	179265
#	190942
#	200973
#	212253
#	225371
#	238086
#	249685
#	262546
#	275269
#	286983
#
# Disc length: 3956 seconds
#
# Revision: 1
# Processed by: cddbd v1.5.2PL0 Copyright (c) Steve Scherf et al.
# Submitted via: EasyCDDAExtractor 11.1.0.1
#
DISCID=4b0f7219
DTITLE=Various Artist - Risque Blues Volume One
DYEAR=1997
DGENRE=Blues
TTITLE0=Bull Moose Jackson - Big Ten-Inch Record
TTITLE1=Roy Brown - Cadillac baby
TTITLE2=Fluffy Hunter - The Walkin' Blues
TTITLE3=Wynonie Harris - I Like My Baby's Pudding
TTITLE4=The Swallows - It Ain't The Meat
TTITLE5=Hank Ballard And The Midnighters - Work With Me Annie
TTITLE6=Billy Ward And The Dominoes - Sixty Minute Man
TTITLE7=Dave Bartholomew - My Ding-A-Ling
TTITLE8=Pete 'Guitar' Lewis - Chocolate Pork Chop Man
TTITLE9=Lucky Millinder - Silent George
TTITLE10=Little Esther - Saturday Night Daddy
TTITLE11=Wynonie Harris - Sittin' On It All The Time
TTITLE12=The Four Jacks - Sure Cure For The Blues
TTITLE13=Roy Brown - Shake 'Em Up Baby
TTITLE14=Todd Rhodes - Rocket 69
TTITLE15=The Lamplighters - Salty Dog
TTITLE16=The Drivers - Smooth, Slow And Easy
TTITLE17=Hank Ballard And The Midnighters - Sexy Ways
TTITLE18=Wynonie Harris - Keep On Churnin'
TTITLE19=Lil Greenwood - Grandpa Can Boogie Too
TTITLE20=Billy Ward And The Dominoes - Pedal Pushin' Papa
TTITLE21=Roy Brown - Boogie At Midnight
TTITLE22=Wynonie Harris - Lolly Pop Mama
TTITLE23=Tiny Bradshaw - I'm A Hi-Ballin' Daddy
TTITLE24=Fats Noel - Ride, Daddy, Ride
EXTD=King Records
EXTT0=
EXTT1=
EXTT2=
EXTT3=
EXTT4=
EXTT5=
EXTT6=
EXTT7=
EXTT8=
EXTT9=
EXTT10=
EXTT11=
EXTT12=
EXTT13=
EXTT14=
EXTT15=
EXTT16=
EXTT17=
EXTT18=
EXTT19=
EXTT20=
EXTT21=
EXTT22=
EXTT23=
EXTT24=
PLAYORDER=
